<svg width="73" height="72" viewBox="0 0 73 72" fill="none" xmlns="http://www.w3.org/2000/svg">
<path d="M57.6796 0H14.4199C6.456 0 0 6.4471 0 14.4V57.6C0 65.5529 6.456 72 14.4199 72H57.6796C65.6434 72 72.0994 65.5529 72.0994 57.6V14.4C72.0994 6.4471 65.6434 0 57.6796 0Z" fill="#112718"/>
<path d="M17.6813 47.0866V18.2213C17.6813 17.1248 18.6035 16.2446 19.6952 16.3625C30.1412 17.491 33.8512 23.149 34.4381 26.1314C34.4583 26.2346 34.4657 26.3316 34.4657 26.437C34.465 34.0512 34.3982 50.4852 34.3761 55.7827C34.372 56.7504 33.6491 57.5419 32.6805 57.522C29.2484 57.4512 21.4744 56.3076 17.8279 47.8123C17.7303 47.5848 17.6813 47.334 17.6813 47.0866Z" fill="#9FBB44"/>
<path d="M54.1779 47.0035V32.6006C54.1779 31.5204 53.2764 30.6461 52.1988 30.7392C40.1154 31.7825 38.2132 39.2002 37.6467 41.4742C37.608 41.6294 37.5886 41.7847 37.5886 41.9448V55.805C37.5886 56.8654 38.4468 57.7087 39.5033 57.6019C43.5365 57.1934 52.6585 55.3802 54.1488 47.3287C54.1686 47.2226 54.1779 47.1115 54.1779 47.0035Z" fill="#9FBB44"/>
<path d="M38.2012 27.8887L37.8477 34.2922L38.5276 32.5178L39.2767 30.9946L40.288 29.2387C40.288 29.2387 41.4632 27.5362 42.3481 26.5531C43.2332 25.5698 46.3645 23.0683 46.3645 23.0683C46.3645 23.0683 44.693 25.1606 43.6788 26.5435C42.6646 27.9264 40.4233 31.3049 40.4233 31.3049L38.3824 35.1449L39.0907 34.3606C40.4355 33.0895 43.7346 30.6672 45.9747 30.1284C48.7794 29.4538 49.547 28.9339 50.7619 28.0123C51.6576 27.3326 52.7804 25.8098 52.8439 24.6602L53.1986 16.8576C53.1986 16.8576 53.2087 16.4329 52.7259 16.2552C52.2433 16.0774 50.2259 16.348 50.0603 16.355C42.4776 16.679 38.4146 24.0209 38.2012 27.8887Z" fill="white"/>
</svg>
