<svg width="261" height="72" viewBox="0 0 261 72" fill="none" xmlns="http://www.w3.org/2000/svg">
<path d="M85.939 29.04V8.09456H100.072V11.7457H90.3736V16.7366H99.3449V20.3877H90.3736V25.3889H100.113V29.04H85.939ZM103.516 29.04V13.3309H107.674V16.1025H107.858C108.186 15.182 108.732 14.4559 109.497 13.9241C110.261 13.3923 111.176 13.1264 112.242 13.1264C113.32 13.1264 114.238 13.3957 114.996 13.9343C115.754 14.4661 116.259 15.1889 116.512 16.1025H116.676C116.997 15.2025 117.577 14.4832 118.417 13.9446C119.264 13.3991 120.264 13.1264 121.418 13.1264C122.886 13.1264 124.077 13.5934 124.992 14.5275C125.914 15.4548 126.375 16.7707 126.375 18.4752V29.04H122.022V19.3343C122.022 18.4616 121.79 17.807 121.326 17.3707C120.861 16.9343 120.281 16.7161 119.585 16.7161C118.793 16.7161 118.175 16.9684 117.731 17.473C117.287 17.9707 117.065 18.6286 117.065 19.4468V29.04H112.835V19.2423C112.835 18.4718 112.614 17.8582 112.17 17.4014C111.733 16.9446 111.156 16.7161 110.439 16.7161C109.954 16.7161 109.517 16.8389 109.128 17.0843C108.746 17.323 108.442 17.6605 108.217 18.0968C107.991 18.5264 107.879 19.0309 107.879 19.6105V29.04H103.516ZM129.821 34.9308V13.3309H134.122V15.9696H134.317C134.508 15.5468 134.784 15.1173 135.146 14.6809C135.515 14.2377 135.993 13.8696 136.58 13.5764C137.174 13.2764 137.912 13.1264 138.792 13.1264C139.939 13.1264 140.998 13.4264 141.967 14.0264C142.937 14.6196 143.712 15.5161 144.292 16.7161C144.872 17.9093 145.162 19.4059 145.162 21.2059C145.162 22.9582 144.879 24.4378 144.312 25.6445C143.753 26.8445 142.988 27.7548 142.018 28.3752C141.056 28.9889 139.977 29.2956 138.782 29.2956C137.935 29.2956 137.215 29.1559 136.621 28.8763C136.034 28.5967 135.553 28.2456 135.177 27.823C134.801 27.3934 134.515 26.9604 134.317 26.5241H134.184V34.9308H129.821ZM134.092 21.1855C134.092 22.1196 134.221 22.9343 134.481 23.6298C134.74 24.3252 135.116 24.8674 135.607 25.2559C136.099 25.6378 136.696 25.8286 137.399 25.8286C138.11 25.8286 138.71 25.6344 139.202 25.2456C139.694 24.8503 140.066 24.3048 140.318 23.6093C140.578 22.907 140.707 22.0991 140.707 21.1855C140.707 20.2786 140.581 19.4809 140.329 18.7923C140.076 18.1036 139.704 17.565 139.212 17.1764C138.721 16.7877 138.116 16.5934 137.399 16.5934C136.69 16.5934 136.089 16.7809 135.597 17.1559C135.112 17.5309 134.74 18.0627 134.481 18.7514C134.221 19.44 134.092 20.2514 134.092 21.1855ZM155.178 29.3467C153.588 29.3467 152.212 29.0093 151.051 28.3344C149.897 27.6526 149.007 26.7048 148.378 25.4911C147.75 24.2707 147.436 22.8559 147.436 21.2468C147.436 19.6241 147.75 18.2059 148.378 16.9923C149.007 15.7718 149.897 14.8241 151.051 14.1491C152.212 13.4673 153.588 13.1264 155.178 13.1264C156.769 13.1264 158.142 13.4673 159.296 14.1491C160.456 14.8241 161.351 15.7718 161.979 16.9923C162.607 18.2059 162.921 19.6241 162.921 21.2468C162.921 22.8559 162.607 24.2707 161.979 25.4911C161.351 26.7048 160.456 27.6526 159.296 28.3344C158.142 29.0093 156.769 29.3467 155.178 29.3467ZM155.199 25.9718C155.923 25.9718 156.527 25.7674 157.012 25.3582C157.496 24.9422 157.862 24.3763 158.108 23.6605C158.36 22.9446 158.487 22.1298 158.487 21.2161C158.487 20.3025 158.36 19.4877 158.108 18.7718C157.862 18.0559 157.496 17.49 157.012 17.0741C156.527 16.6582 155.923 16.4502 155.199 16.4502C154.469 16.4502 153.854 16.6582 153.356 17.0741C152.864 17.49 152.492 18.0559 152.239 18.7718C151.994 19.4877 151.871 20.3025 151.871 21.2161C151.871 22.1298 151.994 22.9446 152.239 23.6605C152.492 24.3763 152.864 24.9422 153.356 25.3582C153.854 25.7674 154.469 25.9718 155.199 25.9718ZM168.467 29.04L164.186 13.3309H168.6L171.037 23.8855H171.181L173.721 13.3309H178.053L180.634 23.8241H180.767L183.163 13.3309H187.567L183.296 29.04H178.677L175.974 19.1605H175.779L173.075 29.04H168.467ZM196.669 29.3467C195.051 29.3467 193.658 29.0196 192.491 28.3651C191.33 27.7037 190.435 26.7696 189.807 25.5626C189.179 24.3492 188.865 22.9139 188.865 21.257C188.865 19.6411 189.179 18.223 189.807 17.0025C190.435 15.782 191.32 14.8309 192.46 14.1491C193.607 13.4673 194.952 13.1264 196.495 13.1264C197.533 13.1264 198.499 13.2934 199.393 13.6275C200.294 13.9548 201.08 14.4491 201.749 15.1105C202.425 15.7718 202.95 16.6036 203.326 17.6059C203.701 18.6014 203.889 19.7673 203.889 21.1036V22.3002H190.606V19.6002H199.782C199.782 18.973 199.646 18.4173 199.373 17.9332C199.1 17.4491 198.721 17.0707 198.236 16.798C197.758 16.5184 197.202 16.3786 196.567 16.3786C195.904 16.3786 195.317 16.532 194.805 16.8389C194.3 17.1389 193.904 17.5446 193.617 18.0559C193.33 18.5605 193.184 19.123 193.177 19.7434V22.3105C193.177 23.0877 193.32 23.7593 193.607 24.3252C193.9 24.8911 194.314 25.3274 194.846 25.6344C195.379 25.9411 196.01 26.0945 196.741 26.0945C197.225 26.0945 197.669 26.0263 198.072 25.89C198.475 25.7537 198.82 25.5492 199.107 25.2763C199.393 25.0037 199.612 24.6696 199.762 24.2741L203.797 24.54C203.592 25.5082 203.172 26.3537 202.537 27.0763C201.909 27.7922 201.097 28.3514 200.1 28.7537C199.11 29.1492 197.966 29.3467 196.669 29.3467ZM206.736 29.04V13.3309H210.966V16.0718H211.13C211.417 15.0968 211.898 14.3605 212.574 13.8627C213.25 13.3582 214.028 13.1059 214.909 13.1059C215.127 13.1059 215.363 13.1196 215.616 13.1468C215.868 13.1741 216.09 13.2116 216.281 13.2593V17.1252C216.077 17.0639 215.793 17.0093 215.431 16.9616C215.069 16.9139 214.738 16.89 214.438 16.89C213.796 16.89 213.223 17.0298 212.717 17.3093C212.219 17.582 211.823 17.9639 211.529 18.4548C211.243 18.9457 211.099 19.5116 211.099 20.1525V29.04H206.736ZM218.537 29.04V13.3309H222.9V29.04H218.537ZM220.729 11.3059C220.08 11.3059 219.524 11.0911 219.059 10.6616C218.602 10.2252 218.373 9.70364 218.373 9.09682C218.373 8.49682 218.602 7.98204 219.059 7.55252C219.524 7.11615 220.08 6.89796 220.729 6.89796C221.377 6.89796 221.93 7.11615 222.388 7.55252C222.852 7.98204 223.084 8.49682 223.084 9.09682C223.084 9.70364 222.852 10.2252 222.388 10.6616C221.93 11.0911 221.377 11.3059 220.729 11.3059ZM230.757 19.9582V29.04H226.395V13.3309H230.553V16.1025H230.737C231.085 15.1889 231.669 14.4661 232.488 13.9343C233.308 13.3957 234.301 13.1264 235.469 13.1264C236.561 13.1264 237.513 13.365 238.326 13.8423C239.139 14.3196 239.77 15.0014 240.22 15.8877C240.67 16.7673 240.896 17.8173 240.896 19.0377V29.04H236.534V19.815C236.541 18.8536 236.295 18.1036 235.796 17.565C235.298 17.0196 234.612 16.7468 233.738 16.7468C233.151 16.7468 232.632 16.873 232.181 17.1252C231.737 17.3775 231.389 17.7457 231.136 18.2298C230.891 18.707 230.764 19.2832 230.757 19.9582ZM251.423 35.2582C250.01 35.2582 248.796 35.0638 247.787 34.6752C246.782 34.2934 245.984 33.7718 245.391 33.1104C244.797 32.4492 244.41 31.7059 244.232 30.8808L248.267 30.3389C248.39 30.6526 248.585 30.9456 248.851 31.2185C249.118 31.4911 249.469 31.7093 249.906 31.873C250.351 32.0434 250.889 32.1286 251.524 32.1286C252.473 32.1286 253.254 31.8967 253.869 31.4333C254.492 30.9763 254.802 30.2093 254.802 29.1322V26.2582H254.617C254.427 26.6945 254.139 27.107 253.756 27.4956C253.374 27.8844 252.884 28.2014 252.283 28.4467C251.682 28.6922 250.964 28.8149 250.132 28.8149C248.95 28.8149 247.876 28.5422 246.905 27.9967C245.943 27.4445 245.174 26.6026 244.602 25.4707C244.035 24.3322 243.751 22.8934 243.751 21.1548C243.751 19.3752 244.042 17.8889 244.621 16.6957C245.203 15.5025 245.975 14.6093 246.936 14.0161C247.907 13.423 248.967 13.1264 250.123 13.1264C251.002 13.1264 251.74 13.2764 252.334 13.5764C252.927 13.8696 253.406 14.2377 253.768 14.6809C254.136 15.1173 254.42 15.5468 254.617 15.9696H254.78V13.3309H259.113V29.1934C259.113 30.5297 258.787 31.6478 258.13 32.5478C257.474 33.4478 256.566 34.123 255.405 34.573C254.252 35.0297 252.925 35.2582 251.423 35.2582ZM251.514 25.5422C252.218 25.5422 252.812 25.3685 253.297 25.0207C253.788 24.6662 254.163 24.1615 254.422 23.507C254.689 22.8457 254.821 22.0548 254.821 21.1343C254.821 20.2139 254.691 19.4161 254.434 18.7411C254.175 18.0593 253.797 17.5309 253.307 17.1559C252.814 16.7809 252.218 16.5934 251.514 16.5934C250.798 16.5934 250.192 16.7877 249.702 17.1764C249.209 17.5582 248.837 18.09 248.585 18.7718C248.332 19.4536 248.207 20.2411 248.207 21.1343C248.207 22.0411 248.332 22.8252 248.585 23.4866C248.844 24.1411 249.217 24.6492 249.702 25.0104C250.192 25.3649 250.798 25.5422 251.514 25.5422Z" fill="black"/>
<path d="M85.1401 46.5456V42.8945H102.366V46.5456H95.945V63.84H91.5616V46.5456H85.1401ZM109.484 54.7582V63.84H105.121V42.8945H109.361V50.9026H109.546C109.901 49.9752 110.474 49.2492 111.266 48.7241C112.058 48.1922 113.052 47.9263 114.246 47.9263C115.339 47.9263 116.291 48.1651 117.104 48.6422C117.923 49.1126 118.558 49.7911 119.009 50.6774C119.466 51.557 119.691 52.6104 119.684 53.8378V63.84H115.322V54.6149C115.328 53.6467 115.083 52.8934 114.584 52.3548C114.093 51.8162 113.403 51.5467 112.516 51.5467C111.921 51.5467 111.396 51.673 110.938 51.9252C110.488 52.1774 110.133 52.5456 109.873 53.0297C109.621 53.507 109.491 54.0833 109.484 54.7582ZM130.287 64.1467C128.669 64.1467 127.276 63.8196 126.108 63.1651C124.948 62.5037 124.053 61.5696 123.425 60.3626C122.797 59.1492 122.483 57.7138 122.483 56.057C122.483 54.4411 122.797 53.023 123.425 51.8026C124.053 50.5822 124.937 49.6308 126.078 48.9492C127.225 48.2674 128.57 47.9263 130.113 47.9263C131.151 47.9263 132.117 48.0934 133.011 48.4274C133.912 48.7548 134.697 49.2492 135.367 49.9104C136.043 50.5718 136.568 51.4037 136.944 52.4059C137.319 53.4014 137.507 54.5674 137.507 55.9037V57.1003H124.224V54.4003H133.4C133.4 53.773 133.264 53.2174 132.991 52.7333C132.718 52.2492 132.339 51.8707 131.854 51.5978C131.376 51.3185 130.819 51.1786 130.185 51.1786C129.522 51.1786 128.935 51.3322 128.423 51.6389C127.918 51.9389 127.522 52.3445 127.235 52.8559C126.948 53.3604 126.801 53.923 126.795 54.5434V57.1104C126.795 57.8878 126.938 58.5593 127.225 59.1252C127.518 59.6911 127.931 60.1274 128.464 60.4344C128.997 60.7411 129.628 60.8945 130.359 60.8945C130.843 60.8945 131.287 60.8263 131.69 60.69C132.093 60.5537 132.438 60.3492 132.724 60.0763C133.011 59.8037 133.23 59.4696 133.38 59.0741L137.415 59.34C137.21 60.3082 136.79 61.1537 136.155 61.8763C135.527 62.5922 134.715 63.1514 133.718 63.5537C132.728 63.9492 131.584 64.1467 130.287 64.1467ZM164.655 42.8945V63.84H160.824L151.699 50.657H151.545V63.84H147.111V42.8945H151.003L160.056 56.0674H160.24V42.8945H164.655ZM172.722 64.1366C171.718 64.1366 170.824 63.9627 170.039 63.6149C169.254 63.2604 168.632 62.7389 168.175 62.0503C167.724 61.3548 167.499 60.4889 167.499 59.4526C167.499 58.5797 167.659 57.8467 167.98 57.2537C168.301 56.6604 168.738 56.1833 169.291 55.8218C169.844 55.4604 170.472 55.1878 171.176 55.0037C171.886 54.8196 172.63 54.69 173.408 54.6149C174.323 54.5196 175.061 54.4308 175.62 54.3492C176.18 54.2604 176.587 54.1308 176.839 53.9604C177.092 53.79 177.218 53.5378 177.218 53.2037V53.1422C177.218 52.4945 177.013 51.9934 176.604 51.6389C176.201 51.2844 175.627 51.107 174.883 51.107C174.098 51.107 173.473 51.2808 173.009 51.6286C172.545 51.9696 172.237 52.3992 172.087 52.9174L168.052 52.59C168.257 51.6355 168.66 50.8104 169.26 50.1149C169.861 49.4126 170.636 48.8741 171.585 48.4992C172.541 48.1174 173.647 47.9263 174.903 47.9263C175.778 47.9263 176.614 48.0286 177.413 48.2333C178.218 48.4378 178.932 48.7548 179.553 49.1844C180.181 49.6138 180.676 50.1662 181.038 50.8411C181.4 51.5093 181.581 52.3104 181.581 53.2445V63.84H177.443V61.6615H177.32C177.068 62.1526 176.73 62.5855 176.307 62.9604C175.883 63.3286 175.375 63.6185 174.781 63.8297C174.187 64.0344 173.5 64.1366 172.722 64.1366ZM173.971 61.1297C174.613 61.1297 175.18 61.0037 175.672 60.7514C176.163 60.4922 176.549 60.1445 176.829 59.7082C177.109 59.2718 177.249 58.7774 177.249 58.2252V56.5582C177.112 56.6467 176.924 56.7286 176.686 56.8037C176.453 56.8718 176.19 56.9366 175.897 56.9978C175.603 57.0526 175.31 57.1037 175.016 57.1514C174.723 57.1922 174.456 57.2297 174.217 57.2638C173.705 57.3389 173.258 57.4582 172.876 57.6218C172.493 57.7855 172.196 58.007 171.985 58.2866C171.773 58.5593 171.667 58.9003 171.667 59.3093C171.667 59.9026 171.882 60.3559 172.312 60.6696C172.749 60.9763 173.302 61.1297 173.971 61.1297ZM193.333 48.1308V51.4037H183.86V48.1308H193.333ZM186.01 44.3674H190.373V59.0126C190.373 59.4149 190.435 59.7286 190.557 59.9537C190.681 60.1718 190.851 60.3252 191.07 60.4138C191.295 60.5026 191.554 60.5467 191.848 60.5467C192.053 60.5467 192.258 60.5297 192.462 60.4956C192.667 60.4548 192.824 60.4241 192.934 60.4037L193.62 63.6456C193.401 63.7138 193.094 63.7922 192.698 63.8808C192.302 63.9763 191.821 64.0344 191.254 64.0548C190.202 64.0956 189.281 63.9559 188.489 63.6355C187.704 63.3149 187.093 62.8174 186.655 62.1422C186.219 61.4674 186.003 60.6149 186.01 59.5855V44.3674ZM196.175 63.84V48.1308H200.538V63.84H196.175ZM198.367 46.1059C197.718 46.1059 197.162 45.8911 196.697 45.4615C196.24 45.0252 196.011 44.5037 196.011 43.8967C196.011 43.2967 196.24 42.7822 196.697 42.3526C197.162 41.9162 197.718 41.6978 198.367 41.6978C199.015 41.6978 199.568 41.9162 200.026 42.3526C200.49 42.7822 200.722 43.2967 200.722 43.8967C200.722 44.5037 200.49 45.0252 200.026 45.4615C199.568 45.8911 199.015 46.1059 198.367 46.1059ZM211.14 64.1467C209.549 64.1467 208.174 63.8093 207.013 63.1344C205.859 62.4526 204.968 61.5048 204.34 60.2911C203.712 59.0707 203.398 57.6559 203.398 56.0467C203.398 54.4241 203.712 53.0059 204.34 51.7922C204.968 50.5718 205.859 49.6241 207.013 48.9492C208.174 48.2674 209.549 47.9263 211.14 47.9263C212.731 47.9263 214.103 48.2674 215.257 48.9492C216.418 49.6241 217.312 50.5718 217.94 51.7922C218.569 53.0059 218.883 54.4241 218.883 56.0467C218.883 57.6559 218.569 59.0707 217.94 60.2911C217.312 61.5048 216.418 62.4526 215.257 63.1344C214.103 63.8093 212.731 64.1467 211.14 64.1467ZM211.161 60.7718C211.884 60.7718 212.489 60.5674 212.973 60.1582C213.458 59.7422 213.823 59.1763 214.069 58.4604C214.322 57.7445 214.448 56.9297 214.448 56.0162C214.448 55.1026 214.322 54.2878 214.069 53.5718C213.823 52.8559 213.458 52.29 212.973 51.8741C212.489 51.4582 211.884 51.2503 211.161 51.2503C210.43 51.2503 209.816 51.4582 209.317 51.8741C208.826 52.29 208.454 52.8559 208.201 53.5718C207.955 54.2878 207.832 55.1026 207.832 56.0162C207.832 56.9297 207.955 57.7445 208.201 58.4604C208.454 59.1763 208.826 59.7422 209.317 60.1582C209.816 60.5674 210.43 60.7718 211.161 60.7718ZM226.082 54.7582V63.84H221.72V48.1308H225.878V50.9026H226.062C226.41 49.9889 226.994 49.2662 227.813 48.7344C228.632 48.1956 229.626 47.9263 230.793 47.9263C231.886 47.9263 232.838 48.1651 233.651 48.6422C234.463 49.1196 235.095 49.8014 235.545 50.6878C235.996 51.5674 236.221 52.6174 236.221 53.8378V63.84H231.858V54.6149C231.865 53.6537 231.62 52.9037 231.121 52.3651C230.623 51.8196 229.937 51.5467 229.063 51.5467C228.476 51.5467 227.957 51.673 227.506 51.9252C227.062 52.1774 226.714 52.5456 226.461 53.0297C226.215 53.507 226.089 54.0833 226.082 54.7582Z" fill="black"/>
<path d="M57.6796 0H14.4199C6.456 0 0 6.4471 0 14.4V57.6C0 65.5529 6.456 72 14.4199 72H57.6796C65.6434 72 72.0994 65.5529 72.0994 57.6V14.4C72.0994 6.4471 65.6434 0 57.6796 0Z" fill="#112718"/>
<path d="M17.6813 47.0866V18.2213C17.6813 17.1248 18.6035 16.2446 19.6952 16.3625C30.1412 17.491 33.8512 23.149 34.4381 26.1314C34.4583 26.2346 34.4657 26.3316 34.4657 26.437C34.465 34.0512 34.3982 50.4852 34.3761 55.7827C34.372 56.7504 33.6491 57.5419 32.6805 57.522C29.2484 57.4512 21.4744 56.3076 17.8279 47.8123C17.7303 47.5848 17.6813 47.334 17.6813 47.0866Z" fill="#9FBB44"/>
<path d="M54.1779 47.0035V32.6006C54.1779 31.5204 53.2764 30.6461 52.1988 30.7392C40.1154 31.7825 38.2132 39.2002 37.6467 41.4742C37.608 41.6294 37.5886 41.7847 37.5886 41.9448V55.805C37.5886 56.8654 38.4468 57.7087 39.5033 57.6019C43.5365 57.1934 52.6585 55.3802 54.1488 47.3287C54.1686 47.2226 54.1779 47.1115 54.1779 47.0035Z" fill="#9FBB44"/>
<path d="M38.2012 27.8887L37.8477 34.2922L38.5276 32.5178L39.2767 30.9946L40.288 29.2387C40.288 29.2387 41.4632 27.5362 42.3481 26.5531C43.2332 25.5698 46.3645 23.0683 46.3645 23.0683C46.3645 23.0683 44.693 25.1606 43.6788 26.5435C42.6646 27.9264 40.4233 31.3049 40.4233 31.3049L38.3824 35.1449L39.0907 34.3606C40.4355 33.0895 43.7346 30.6672 45.9747 30.1284C48.7794 29.4538 49.547 28.9339 50.7619 28.0123C51.6576 27.3326 52.7804 25.8098 52.8439 24.6602L53.1986 16.8576C53.1986 16.8576 53.2087 16.4329 52.7259 16.2552C52.2433 16.0774 50.2259 16.348 50.0603 16.355C42.4776 16.679 38.4146 24.0209 38.2012 27.8887Z" fill="white"/>
</svg>
